<mxfile host="app.diagrams.net" agent="Mozilla/5.0 (Windows NT 10.0; Win64; x64) AppleWebKit/537.36 (KHTML, like Gecko) Chrome/130.0.0.0 Safari/537.36" version="24.8.0">
  <diagram name="Side-1" id="65lDmpUPiSHvBf-vwyyM">
    <mxGraphModel dx="2086" dy="1831" grid="1" gridSize="5" guides="1" tooltips="1" connect="1" arrows="1" fold="1" page="1" pageScale="1" pageWidth="827" pageHeight="1169" math="0" shadow="0">
      <root>
        <mxCell id="0" />
        <mxCell id="1" parent="0" />
        <mxCell id="a9t_pYpvHZfNQOZHy2Yf-6" style="edgeStyle=orthogonalEdgeStyle;rounded=0;orthogonalLoop=1;jettySize=auto;html=1;exitX=-0.001;exitY=0.602;exitDx=0;exitDy=0;entryX=1.003;entryY=0.598;entryDx=0;entryDy=0;entryPerimeter=0;exitPerimeter=0;strokeWidth=2;" parent="1" source="a9t_pYpvHZfNQOZHy2Yf-1" target="a9t_pYpvHZfNQOZHy2Yf-3" edge="1">
          <mxGeometry relative="1" as="geometry" />
        </mxCell>
        <mxCell id="a9t_pYpvHZfNQOZHy2Yf-8" style="edgeStyle=orthogonalEdgeStyle;rounded=0;orthogonalLoop=1;jettySize=auto;html=1;exitX=0;exitY=0.75;exitDx=0;exitDy=0;entryX=1;entryY=0.75;entryDx=0;entryDy=0;strokeWidth=2;" parent="1" source="a9t_pYpvHZfNQOZHy2Yf-1" target="a9t_pYpvHZfNQOZHy2Yf-3" edge="1">
          <mxGeometry relative="1" as="geometry" />
        </mxCell>
        <mxCell id="oEeGsD2-1XBBF1b0rADH-3" style="edgeStyle=orthogonalEdgeStyle;rounded=0;orthogonalLoop=1;jettySize=auto;html=1;entryX=0.5;entryY=1;entryDx=0;entryDy=0;exitX=-0.002;exitY=0.6;exitDx=0;exitDy=0;exitPerimeter=0;strokeWidth=2;" edge="1" parent="1" source="a9t_pYpvHZfNQOZHy2Yf-1" target="a9t_pYpvHZfNQOZHy2Yf-4">
          <mxGeometry relative="1" as="geometry" />
        </mxCell>
        <mxCell id="a9t_pYpvHZfNQOZHy2Yf-1" value="&lt;font style=&quot;font-size: 28px;&quot;&gt;MCU&lt;/font&gt;" style="rounded=1;whiteSpace=wrap;html=1;" parent="1" vertex="1">
          <mxGeometry x="640" y="360" width="120" height="200" as="geometry" />
        </mxCell>
        <mxCell id="a9t_pYpvHZfNQOZHy2Yf-15" style="edgeStyle=orthogonalEdgeStyle;rounded=0;orthogonalLoop=1;jettySize=auto;html=1;exitX=0.75;exitY=0;exitDx=0;exitDy=0;entryX=0.75;entryY=1;entryDx=0;entryDy=0;strokeWidth=2;" parent="1" source="a9t_pYpvHZfNQOZHy2Yf-3" target="a9t_pYpvHZfNQOZHy2Yf-13" edge="1">
          <mxGeometry relative="1" as="geometry" />
        </mxCell>
        <mxCell id="a9t_pYpvHZfNQOZHy2Yf-32" style="edgeStyle=orthogonalEdgeStyle;rounded=0;orthogonalLoop=1;jettySize=auto;html=1;exitX=0.299;exitY=0.002;exitDx=0;exitDy=0;entryX=0.3;entryY=1.001;entryDx=0;entryDy=0;exitPerimeter=0;entryPerimeter=0;strokeWidth=2;startArrow=classic;startFill=1;endArrow=none;endFill=0;" parent="1" source="a9t_pYpvHZfNQOZHy2Yf-3" target="a9t_pYpvHZfNQOZHy2Yf-13" edge="1">
          <mxGeometry relative="1" as="geometry" />
        </mxCell>
        <mxCell id="a9t_pYpvHZfNQOZHy2Yf-60" style="edgeStyle=orthogonalEdgeStyle;rounded=0;orthogonalLoop=1;jettySize=auto;html=1;entryX=0.597;entryY=0.997;entryDx=0;entryDy=0;exitX=0.005;exitY=0.597;exitDx=0;exitDy=0;exitPerimeter=0;strokeWidth=2;entryPerimeter=0;startArrow=classic;startFill=1;endArrow=none;endFill=0;" parent="1" source="a9t_pYpvHZfNQOZHy2Yf-3" target="a9t_pYpvHZfNQOZHy2Yf-59" edge="1">
          <mxGeometry relative="1" as="geometry" />
        </mxCell>
        <mxCell id="a9t_pYpvHZfNQOZHy2Yf-130" style="edgeStyle=orthogonalEdgeStyle;rounded=0;orthogonalLoop=1;jettySize=auto;html=1;exitX=0.75;exitY=1;exitDx=0;exitDy=0;entryX=0.75;entryY=0;entryDx=0;entryDy=0;strokeWidth=2;" parent="1" source="a9t_pYpvHZfNQOZHy2Yf-3" target="a9t_pYpvHZfNQOZHy2Yf-129" edge="1">
          <mxGeometry relative="1" as="geometry" />
        </mxCell>
        <mxCell id="a9t_pYpvHZfNQOZHy2Yf-133" value="&lt;span style=&quot;font-size: 18px;&quot;&gt;A&lt;/span&gt;" style="edgeLabel;html=1;align=center;verticalAlign=middle;resizable=0;points=[];rotation=0;" parent="a9t_pYpvHZfNQOZHy2Yf-130" vertex="1" connectable="0">
          <mxGeometry x="0.194" y="1" relative="1" as="geometry">
            <mxPoint x="-1" y="-8" as="offset" />
          </mxGeometry>
        </mxCell>
        <mxCell id="a9t_pYpvHZfNQOZHy2Yf-131" style="edgeStyle=orthogonalEdgeStyle;rounded=0;orthogonalLoop=1;jettySize=auto;html=1;exitX=0.5;exitY=1;exitDx=0;exitDy=0;entryX=0.5;entryY=0;entryDx=0;entryDy=0;strokeWidth=2;" parent="1" source="a9t_pYpvHZfNQOZHy2Yf-3" target="a9t_pYpvHZfNQOZHy2Yf-129" edge="1">
          <mxGeometry relative="1" as="geometry" />
        </mxCell>
        <mxCell id="a9t_pYpvHZfNQOZHy2Yf-132" style="edgeStyle=orthogonalEdgeStyle;rounded=0;orthogonalLoop=1;jettySize=auto;html=1;exitX=0.25;exitY=1;exitDx=0;exitDy=0;entryX=0.25;entryY=0;entryDx=0;entryDy=0;strokeWidth=2;" parent="1" source="a9t_pYpvHZfNQOZHy2Yf-3" target="a9t_pYpvHZfNQOZHy2Yf-129" edge="1">
          <mxGeometry relative="1" as="geometry" />
        </mxCell>
        <mxCell id="a9t_pYpvHZfNQOZHy2Yf-3" value="&lt;span style=&quot;font-size: 28px;&quot;&gt;Internal Memory&lt;/span&gt;" style="rounded=1;whiteSpace=wrap;html=1;" parent="1" vertex="1">
          <mxGeometry x="160" y="360" width="200" height="200" as="geometry" />
        </mxCell>
        <mxCell id="a9t_pYpvHZfNQOZHy2Yf-4" value="&lt;font style=&quot;font-size: 28px;&quot;&gt;I/O&lt;br&gt;Port&lt;/font&gt;" style="rounded=1;whiteSpace=wrap;html=1;" parent="1" vertex="1">
          <mxGeometry x="430" y="379.31" width="80" height="70" as="geometry" />
        </mxCell>
        <mxCell id="a9t_pYpvHZfNQOZHy2Yf-10" style="edgeStyle=orthogonalEdgeStyle;rounded=0;orthogonalLoop=1;jettySize=auto;html=1;exitX=1;exitY=0.5;exitDx=0;exitDy=0;startArrow=classic;startFill=1;strokeWidth=2;entryX=-0.019;entryY=0.273;entryDx=0;entryDy=0;entryPerimeter=0;" parent="1" source="a9t_pYpvHZfNQOZHy2Yf-4" target="a9t_pYpvHZfNQOZHy2Yf-1" edge="1">
          <mxGeometry relative="1" as="geometry">
            <mxPoint x="620" y="415" as="targetPoint" />
          </mxGeometry>
        </mxCell>
        <mxCell id="a9t_pYpvHZfNQOZHy2Yf-20" value="DATA/ADDR" style="edgeLabel;html=1;align=center;verticalAlign=middle;resizable=0;points=[];rotation=-45;fontSize=18;" parent="a9t_pYpvHZfNQOZHy2Yf-10" vertex="1" connectable="0">
          <mxGeometry x="-0.0754" y="2" relative="1" as="geometry">
            <mxPoint x="21" y="-2" as="offset" />
          </mxGeometry>
        </mxCell>
        <mxCell id="a9t_pYpvHZfNQOZHy2Yf-11" style="edgeStyle=orthogonalEdgeStyle;rounded=0;orthogonalLoop=1;jettySize=auto;html=1;entryX=0.994;entryY=0.273;entryDx=0;entryDy=0;entryPerimeter=0;startArrow=classic;startFill=1;strokeWidth=2;" parent="1" source="a9t_pYpvHZfNQOZHy2Yf-4" target="a9t_pYpvHZfNQOZHy2Yf-3" edge="1">
          <mxGeometry relative="1" as="geometry" />
        </mxCell>
        <mxCell id="a9t_pYpvHZfNQOZHy2Yf-108" style="edgeStyle=orthogonalEdgeStyle;rounded=0;orthogonalLoop=1;jettySize=auto;html=1;exitX=0.845;exitY=-0.001;exitDx=0;exitDy=0;entryX=0.846;entryY=1.002;entryDx=0;entryDy=0;exitPerimeter=0;entryPerimeter=0;strokeWidth=2;" parent="1" source="a9t_pYpvHZfNQOZHy2Yf-13" target="a9t_pYpvHZfNQOZHy2Yf-107" edge="1">
          <mxGeometry relative="1" as="geometry" />
        </mxCell>
        <mxCell id="a9t_pYpvHZfNQOZHy2Yf-112" style="edgeStyle=orthogonalEdgeStyle;rounded=0;orthogonalLoop=1;jettySize=auto;html=1;exitX=0.55;exitY=0.002;exitDx=0;exitDy=0;strokeWidth=2;exitPerimeter=0;entryX=0.549;entryY=1;entryDx=0;entryDy=0;entryPerimeter=0;" parent="1" source="a9t_pYpvHZfNQOZHy2Yf-13" target="a9t_pYpvHZfNQOZHy2Yf-107" edge="1">
          <mxGeometry relative="1" as="geometry">
            <mxPoint x="271" y="-160" as="targetPoint" />
          </mxGeometry>
        </mxCell>
        <mxCell id="a9t_pYpvHZfNQOZHy2Yf-13" value="&lt;font style=&quot;font-size: 28px;&quot;&gt;IV&lt;br&gt;Saver&lt;/font&gt;" style="rounded=1;whiteSpace=wrap;html=1;" parent="1" vertex="1">
          <mxGeometry x="160" width="200" height="200" as="geometry" />
        </mxCell>
        <mxCell id="a9t_pYpvHZfNQOZHy2Yf-18" style="edgeStyle=orthogonalEdgeStyle;rounded=0;orthogonalLoop=1;jettySize=auto;html=1;exitX=0.604;exitY=0.001;exitDx=0;exitDy=0;exitPerimeter=0;strokeWidth=2;entryX=0.6;entryY=1;entryDx=0;entryDy=0;entryPerimeter=0;" parent="1" source="a9t_pYpvHZfNQOZHy2Yf-3" target="a9t_pYpvHZfNQOZHy2Yf-13" edge="1">
          <mxGeometry relative="1" as="geometry">
            <mxPoint x="280" y="210" as="targetPoint" />
            <Array as="points">
              <mxPoint x="281" y="300" />
              <mxPoint x="280" y="300" />
            </Array>
          </mxGeometry>
        </mxCell>
        <mxCell id="a9t_pYpvHZfNQOZHy2Yf-23" value="&lt;font style=&quot;font-size: 18px;&quot;&gt;CLK&lt;/font&gt;" style="text;html=1;align=center;verticalAlign=middle;whiteSpace=wrap;rounded=0;fillColor=default;" parent="1" vertex="1">
          <mxGeometry x="389" y="499" width="50" height="20" as="geometry" />
        </mxCell>
        <mxCell id="a9t_pYpvHZfNQOZHy2Yf-26" value="&lt;font style=&quot;font-size: 18px;&quot;&gt;R/nW&lt;/font&gt;" style="text;html=1;align=center;verticalAlign=middle;whiteSpace=wrap;rounded=0;fillColor=default;" parent="1" vertex="1">
          <mxGeometry x="390" y="469" width="50" height="20" as="geometry" />
        </mxCell>
        <mxCell id="a9t_pYpvHZfNQOZHy2Yf-27" value="&lt;font style=&quot;font-size: 18px;&quot;&gt;CLK&lt;/font&gt;" style="text;html=1;align=center;verticalAlign=middle;whiteSpace=wrap;rounded=0;fillColor=default;rotation=-90;" parent="1" vertex="1">
          <mxGeometry x="290" y="275" width="40" height="12.93" as="geometry" />
        </mxCell>
        <mxCell id="a9t_pYpvHZfNQOZHy2Yf-29" value="&lt;span style=&quot;font-size: 18px;&quot;&gt;Done/nBusy&lt;/span&gt;" style="text;html=1;align=center;verticalAlign=middle;whiteSpace=wrap;rounded=0;fillColor=default;rotation=-90;" parent="1" vertex="1">
          <mxGeometry x="231" y="260" width="100" height="12.93" as="geometry" />
        </mxCell>
        <mxCell id="a9t_pYpvHZfNQOZHy2Yf-30" style="edgeStyle=orthogonalEdgeStyle;rounded=0;orthogonalLoop=1;jettySize=auto;html=1;exitX=0.447;exitY=-0.001;exitDx=0;exitDy=0;entryX=0.451;entryY=1.003;entryDx=0;entryDy=0;entryPerimeter=0;exitPerimeter=0;strokeWidth=2;" parent="1" source="a9t_pYpvHZfNQOZHy2Yf-3" target="a9t_pYpvHZfNQOZHy2Yf-13" edge="1">
          <mxGeometry relative="1" as="geometry" />
        </mxCell>
        <mxCell id="a9t_pYpvHZfNQOZHy2Yf-31" value="&lt;font style=&quot;font-size: 18px;&quot;&gt;ADDR&lt;/font&gt;" style="text;html=1;align=center;verticalAlign=middle;whiteSpace=wrap;rounded=0;fillColor=default;rotation=-90;" parent="1" vertex="1">
          <mxGeometry x="225" y="270" width="50" height="12.93" as="geometry" />
        </mxCell>
        <mxCell id="a9t_pYpvHZfNQOZHy2Yf-33" value="&lt;font style=&quot;font-size: 18px;&quot;&gt;DATA&lt;/font&gt;" style="text;html=1;align=center;verticalAlign=middle;whiteSpace=wrap;rounded=0;fillColor=default;rotation=-90;" parent="1" vertex="1">
          <mxGeometry x="195" y="270" width="50" height="12.93" as="geometry" />
        </mxCell>
        <mxCell id="a9t_pYpvHZfNQOZHy2Yf-35" value="" style="endArrow=none;html=1;rounded=0;strokeWidth=2;" parent="1" edge="1">
          <mxGeometry width="50" height="50" relative="1" as="geometry">
            <mxPoint x="215" y="340" as="sourcePoint" />
            <mxPoint x="225" y="330" as="targetPoint" />
          </mxGeometry>
        </mxCell>
        <mxCell id="a9t_pYpvHZfNQOZHy2Yf-36" value="" style="endArrow=none;html=1;rounded=0;strokeWidth=2;" parent="1" edge="1">
          <mxGeometry width="50" height="50" relative="1" as="geometry">
            <mxPoint x="244" y="340" as="sourcePoint" />
            <mxPoint x="254" y="330" as="targetPoint" />
          </mxGeometry>
        </mxCell>
        <mxCell id="a9t_pYpvHZfNQOZHy2Yf-39" value="&lt;font style=&quot;font-size: 18px;&quot;&gt;16&lt;/font&gt;" style="text;html=1;align=center;verticalAlign=middle;whiteSpace=wrap;rounded=0;fillColor=default;rotation=0;" parent="1" vertex="1">
          <mxGeometry x="198" y="320" width="20" height="12.93" as="geometry" />
        </mxCell>
        <mxCell id="a9t_pYpvHZfNQOZHy2Yf-40" value="&lt;font style=&quot;font-size: 18px;&quot;&gt;16&lt;/font&gt;" style="text;html=1;align=center;verticalAlign=middle;whiteSpace=wrap;rounded=0;fillColor=default;rotation=0;" parent="1" vertex="1">
          <mxGeometry x="227" y="320" width="20" height="12.93" as="geometry" />
        </mxCell>
        <mxCell id="a9t_pYpvHZfNQOZHy2Yf-41" value="" style="endArrow=none;html=1;rounded=0;strokeWidth=2;" parent="1" edge="1">
          <mxGeometry width="50" height="50" relative="1" as="geometry">
            <mxPoint x="610" y="420" as="sourcePoint" />
            <mxPoint x="620" y="410" as="targetPoint" />
          </mxGeometry>
        </mxCell>
        <mxCell id="a9t_pYpvHZfNQOZHy2Yf-42" value="&lt;font style=&quot;font-size: 18px;&quot;&gt;16&lt;/font&gt;" style="text;html=1;align=center;verticalAlign=middle;whiteSpace=wrap;rounded=0;fillColor=default;rotation=0;" parent="1" vertex="1">
          <mxGeometry x="604" y="423" width="20" height="12.93" as="geometry" />
        </mxCell>
        <mxCell id="a9t_pYpvHZfNQOZHy2Yf-43" value="" style="endArrow=none;html=1;rounded=0;strokeWidth=2;" parent="1" edge="1">
          <mxGeometry width="50" height="50" relative="1" as="geometry">
            <mxPoint x="376" y="420" as="sourcePoint" />
            <mxPoint x="386" y="410" as="targetPoint" />
          </mxGeometry>
        </mxCell>
        <mxCell id="a9t_pYpvHZfNQOZHy2Yf-44" value="&lt;font style=&quot;font-size: 18px;&quot;&gt;16&lt;/font&gt;" style="text;html=1;align=center;verticalAlign=middle;whiteSpace=wrap;rounded=0;fillColor=default;rotation=0;" parent="1" vertex="1">
          <mxGeometry x="370" y="423" width="20" height="12.93" as="geometry" />
        </mxCell>
        <mxCell id="a9t_pYpvHZfNQOZHy2Yf-91" style="edgeStyle=orthogonalEdgeStyle;rounded=0;orthogonalLoop=1;jettySize=auto;html=1;entryX=-0.002;entryY=0.601;entryDx=0;entryDy=0;exitX=1.001;exitY=0.599;exitDx=0;exitDy=0;exitPerimeter=0;entryPerimeter=0;strokeWidth=2;" parent="1" source="a9t_pYpvHZfNQOZHy2Yf-59" target="a9t_pYpvHZfNQOZHy2Yf-13" edge="1">
          <mxGeometry relative="1" as="geometry" />
        </mxCell>
        <mxCell id="a9t_pYpvHZfNQOZHy2Yf-105" style="edgeStyle=orthogonalEdgeStyle;rounded=0;orthogonalLoop=1;jettySize=auto;html=1;exitX=1;exitY=0.25;exitDx=0;exitDy=0;entryX=0;entryY=0.25;entryDx=0;entryDy=0;strokeWidth=2;" parent="1" source="a9t_pYpvHZfNQOZHy2Yf-59" target="a9t_pYpvHZfNQOZHy2Yf-13" edge="1">
          <mxGeometry relative="1" as="geometry" />
        </mxCell>
        <mxCell id="a9t_pYpvHZfNQOZHy2Yf-59" value="&lt;span style=&quot;font-size: 28px;&quot;&gt;ADC&lt;br&gt;Control&lt;/span&gt;" style="rounded=1;whiteSpace=wrap;html=1;" parent="1" vertex="1">
          <mxGeometry x="-280" width="200" height="200" as="geometry" />
        </mxCell>
        <mxCell id="a9t_pYpvHZfNQOZHy2Yf-61" value="&lt;span style=&quot;font-size: 18px;&quot;&gt;Done/nBusy&lt;/span&gt;" style="text;html=1;align=center;verticalAlign=middle;whiteSpace=wrap;rounded=0;fillColor=default;rotation=0;" parent="1" vertex="1">
          <mxGeometry x="-100" y="472.53" width="100" height="12.93" as="geometry" />
        </mxCell>
        <mxCell id="a9t_pYpvHZfNQOZHy2Yf-63" style="edgeStyle=orthogonalEdgeStyle;rounded=0;orthogonalLoop=1;jettySize=auto;html=1;exitX=0;exitY=0.75;exitDx=0;exitDy=0;entryX=0.454;entryY=1.002;entryDx=0;entryDy=0;entryPerimeter=0;strokeWidth=2;" parent="1" source="a9t_pYpvHZfNQOZHy2Yf-3" target="a9t_pYpvHZfNQOZHy2Yf-59" edge="1">
          <mxGeometry relative="1" as="geometry" />
        </mxCell>
        <mxCell id="a9t_pYpvHZfNQOZHy2Yf-64" value="&lt;span style=&quot;font-size: 18px;&quot;&gt;Amount&lt;/span&gt;" style="text;html=1;align=center;verticalAlign=middle;whiteSpace=wrap;rounded=0;fillColor=default;rotation=0;" parent="1" vertex="1">
          <mxGeometry x="-100" y="503.07" width="70" height="12.93" as="geometry" />
        </mxCell>
        <mxCell id="a9t_pYpvHZfNQOZHy2Yf-65" style="edgeStyle=orthogonalEdgeStyle;rounded=0;orthogonalLoop=1;jettySize=auto;html=1;strokeWidth=2;exitX=0;exitY=0.25;exitDx=0;exitDy=0;" parent="1" source="a9t_pYpvHZfNQOZHy2Yf-3" edge="1">
          <mxGeometry relative="1" as="geometry">
            <mxPoint x="-80" y="160" as="targetPoint" />
            <Array as="points">
              <mxPoint x="10" y="410" />
              <mxPoint x="10" y="160" />
            </Array>
            <mxPoint x="10" y="375" as="sourcePoint" />
          </mxGeometry>
        </mxCell>
        <mxCell id="a9t_pYpvHZfNQOZHy2Yf-66" value="&lt;font style=&quot;font-size: 18px;&quot;&gt;Trig&lt;/font&gt;" style="text;html=1;align=center;verticalAlign=middle;whiteSpace=wrap;rounded=0;fillColor=default;rotation=0;" parent="1" vertex="1">
          <mxGeometry x="-50" y="154" width="40" height="12.93" as="geometry" />
        </mxCell>
        <mxCell id="a9t_pYpvHZfNQOZHy2Yf-67" value="" style="verticalLabelPosition=bottom;shadow=0;dashed=0;align=center;html=1;verticalAlign=top;shape=mxgraph.electrical.abstract.dac;rotation=-180;" parent="1" vertex="1">
          <mxGeometry x="-530" y="19" width="90" height="56" as="geometry" />
        </mxCell>
        <mxCell id="a9t_pYpvHZfNQOZHy2Yf-97" style="edgeStyle=orthogonalEdgeStyle;rounded=0;orthogonalLoop=1;jettySize=auto;html=1;exitX=-0.003;exitY=0.048;exitDx=0;exitDy=0;exitPerimeter=0;entryX=0.019;entryY=0.928;entryDx=0;entryDy=0;entryPerimeter=0;strokeWidth=2;startArrow=classic;startFill=1;endArrow=none;endFill=0;" parent="1" source="a9t_pYpvHZfNQOZHy2Yf-71" target="a9t_pYpvHZfNQOZHy2Yf-59" edge="1">
          <mxGeometry relative="1" as="geometry">
            <mxPoint x="-308.7878689236111" y="180" as="targetPoint" />
          </mxGeometry>
        </mxCell>
        <mxCell id="a9t_pYpvHZfNQOZHy2Yf-71" value="" style="verticalLabelPosition=bottom;shadow=0;dashed=0;align=center;html=1;verticalAlign=top;shape=mxgraph.electrical.abstract.dac;rotation=-180;" parent="1" vertex="1">
          <mxGeometry x="-530" y="132.45999999999998" width="90" height="56" as="geometry" />
        </mxCell>
        <mxCell id="a9t_pYpvHZfNQOZHy2Yf-72" style="edgeStyle=orthogonalEdgeStyle;rounded=0;orthogonalLoop=1;jettySize=auto;html=1;exitX=-0.001;exitY=0.326;exitDx=0;exitDy=0;exitPerimeter=0;strokeWidth=2;entryX=0;entryY=0.179;entryDx=0;entryDy=0;entryPerimeter=0;" parent="1" target="a9t_pYpvHZfNQOZHy2Yf-67" edge="1">
          <mxGeometry relative="1" as="geometry">
            <mxPoint x="-279.99999999999994" y="64.55000000000001" as="sourcePoint" />
            <mxPoint x="-428.45" y="64.51" as="targetPoint" />
          </mxGeometry>
        </mxCell>
        <mxCell id="a9t_pYpvHZfNQOZHy2Yf-73" style="edgeStyle=orthogonalEdgeStyle;rounded=0;orthogonalLoop=1;jettySize=auto;html=1;entryX=0.002;entryY=0.831;entryDx=0;entryDy=0;entryPerimeter=0;exitX=0;exitY=0.326;exitDx=0;exitDy=0;exitPerimeter=0;strokeWidth=2;" parent="1" source="a9t_pYpvHZfNQOZHy2Yf-59" target="a9t_pYpvHZfNQOZHy2Yf-71" edge="1">
          <mxGeometry relative="1" as="geometry">
            <Array as="points">
              <mxPoint x="-340" y="65" />
              <mxPoint x="-340" y="142" />
            </Array>
          </mxGeometry>
        </mxCell>
        <mxCell id="a9t_pYpvHZfNQOZHy2Yf-74" value="&lt;font style=&quot;font-size: 18px;&quot;&gt;CNV&lt;/font&gt;" style="text;html=1;align=center;verticalAlign=middle;whiteSpace=wrap;rounded=0;fillColor=default;rotation=0;" parent="1" vertex="1">
          <mxGeometry x="-360" y="93.53999999999999" width="40" height="12.93" as="geometry" />
        </mxCell>
        <mxCell id="a9t_pYpvHZfNQOZHy2Yf-77" style="edgeStyle=orthogonalEdgeStyle;rounded=0;orthogonalLoop=1;jettySize=auto;html=1;exitX=0;exitY=0.5;exitDx=0;exitDy=0;exitPerimeter=0;entryX=0;entryY=0.802;entryDx=0;entryDy=0;entryPerimeter=0;strokeWidth=2;" parent="1" source="a9t_pYpvHZfNQOZHy2Yf-71" target="a9t_pYpvHZfNQOZHy2Yf-59" edge="1">
          <mxGeometry relative="1" as="geometry" />
        </mxCell>
        <mxCell id="a9t_pYpvHZfNQOZHy2Yf-78" value="&lt;font style=&quot;font-size: 18px;&quot;&gt;DATA&lt;/font&gt;" style="text;html=1;align=center;verticalAlign=middle;whiteSpace=wrap;rounded=0;fillColor=default;rotation=0;" parent="1" vertex="1">
          <mxGeometry x="-350" y="154" width="50" height="12.93" as="geometry" />
        </mxCell>
        <mxCell id="a9t_pYpvHZfNQOZHy2Yf-82" value="&lt;font style=&quot;font-size: 18px;&quot;&gt;CLK&lt;/font&gt;" style="text;html=1;align=center;verticalAlign=middle;whiteSpace=wrap;rounded=0;fillColor=default;rotation=0;" parent="1" vertex="1">
          <mxGeometry x="-345" y="180.53" width="40" height="12.93" as="geometry" />
        </mxCell>
        <mxCell id="a9t_pYpvHZfNQOZHy2Yf-83" style="edgeStyle=orthogonalEdgeStyle;rounded=0;orthogonalLoop=1;jettySize=auto;html=1;entryX=-0.004;entryY=0.255;entryDx=0;entryDy=0;strokeWidth=2;entryPerimeter=0;exitX=-0.002;exitY=0.419;exitDx=0;exitDy=0;exitPerimeter=0;" parent="1" source="a9t_pYpvHZfNQOZHy2Yf-67" target="a9t_pYpvHZfNQOZHy2Yf-59" edge="1">
          <mxGeometry relative="1" as="geometry">
            <mxPoint x="-440" y="51" as="sourcePoint" />
            <mxPoint x="-280.79999999999995" y="51.19999999999999" as="targetPoint" />
          </mxGeometry>
        </mxCell>
        <mxCell id="a9t_pYpvHZfNQOZHy2Yf-84" value="&lt;font style=&quot;font-size: 18px;&quot;&gt;DATA&lt;/font&gt;" style="text;html=1;align=center;verticalAlign=middle;whiteSpace=wrap;rounded=0;fillColor=default;rotation=0;" parent="1" vertex="1">
          <mxGeometry x="-353" y="45.6" width="50" height="12.93" as="geometry" />
        </mxCell>
        <mxCell id="a9t_pYpvHZfNQOZHy2Yf-87" style="edgeStyle=orthogonalEdgeStyle;rounded=0;orthogonalLoop=1;jettySize=auto;html=1;exitX=0.002;exitY=0.9;exitDx=0;exitDy=0;exitPerimeter=0;entryX=0.001;entryY=0.127;entryDx=0;entryDy=0;entryPerimeter=0;strokeWidth=2;startArrow=classic;startFill=1;endArrow=none;endFill=0;" parent="1" source="a9t_pYpvHZfNQOZHy2Yf-67" target="a9t_pYpvHZfNQOZHy2Yf-59" edge="1">
          <mxGeometry relative="1" as="geometry">
            <mxPoint x="-361" y="25.47" as="sourcePoint" />
            <mxPoint x="-280" y="25.47" as="targetPoint" />
          </mxGeometry>
        </mxCell>
        <mxCell id="a9t_pYpvHZfNQOZHy2Yf-88" value="&lt;font style=&quot;font-size: 18px;&quot;&gt;CLK&lt;/font&gt;" style="text;html=1;align=center;verticalAlign=middle;whiteSpace=wrap;rounded=0;fillColor=default;rotation=0;" parent="1" vertex="1">
          <mxGeometry x="-348" y="19" width="40" height="12.93" as="geometry" />
        </mxCell>
        <mxCell id="a9t_pYpvHZfNQOZHy2Yf-89" value="&lt;font style=&quot;font-size: 22px;&quot;&gt;ADC1&lt;/font&gt;" style="text;html=1;align=center;verticalAlign=middle;whiteSpace=wrap;rounded=0;fillColor=default;rotation=0;" parent="1" vertex="1">
          <mxGeometry x="-500" y="38.06999999999999" width="50" height="20" as="geometry" />
        </mxCell>
        <mxCell id="a9t_pYpvHZfNQOZHy2Yf-90" value="&lt;font style=&quot;font-size: 22px;&quot;&gt;ADC2&lt;/font&gt;" style="text;html=1;align=center;verticalAlign=middle;whiteSpace=wrap;rounded=0;fillColor=default;rotation=0;" parent="1" vertex="1">
          <mxGeometry x="-500" y="152.52999999999997" width="50" height="20" as="geometry" />
        </mxCell>
        <mxCell id="a9t_pYpvHZfNQOZHy2Yf-92" value="&lt;font style=&quot;font-size: 18px;&quot;&gt;DATA&lt;/font&gt;" style="text;html=1;align=center;verticalAlign=middle;whiteSpace=wrap;rounded=0;fillColor=default;rotation=0;" parent="1" vertex="1">
          <mxGeometry x="11.4" y="113.53" width="48.6" height="12.93" as="geometry" />
        </mxCell>
        <mxCell id="a9t_pYpvHZfNQOZHy2Yf-94" value="" style="endArrow=none;html=1;rounded=0;strokeWidth=2;" parent="1" edge="1">
          <mxGeometry width="50" height="50" relative="1" as="geometry">
            <mxPoint x="-414" y="165.53" as="sourcePoint" />
            <mxPoint x="-404" y="156" as="targetPoint" />
          </mxGeometry>
        </mxCell>
        <mxCell id="a9t_pYpvHZfNQOZHy2Yf-95" value="&lt;font style=&quot;font-size: 18px;&quot;&gt;16&lt;/font&gt;" style="text;html=1;align=center;verticalAlign=middle;whiteSpace=wrap;rounded=0;fillColor=none;rotation=0;" parent="1" vertex="1">
          <mxGeometry x="-411" y="166.93" width="20" height="12.93" as="geometry" />
        </mxCell>
        <mxCell id="a9t_pYpvHZfNQOZHy2Yf-101" value="" style="endArrow=none;html=1;rounded=0;strokeWidth=2;" parent="1" edge="1">
          <mxGeometry width="50" height="50" relative="1" as="geometry">
            <mxPoint x="-418" y="56.13000000000001" as="sourcePoint" />
            <mxPoint x="-408" y="46.60000000000001" as="targetPoint" />
          </mxGeometry>
        </mxCell>
        <mxCell id="a9t_pYpvHZfNQOZHy2Yf-102" value="&lt;font style=&quot;font-size: 18px;&quot;&gt;16&lt;/font&gt;" style="text;html=1;align=center;verticalAlign=middle;whiteSpace=wrap;rounded=0;fillColor=none;rotation=0;" parent="1" vertex="1">
          <mxGeometry x="-432" y="33.07" width="20" height="12.93" as="geometry" />
        </mxCell>
        <mxCell id="a9t_pYpvHZfNQOZHy2Yf-103" value="" style="endArrow=none;html=1;rounded=0;strokeWidth=2;" parent="1" edge="1">
          <mxGeometry width="50" height="50" relative="1" as="geometry">
            <mxPoint x="-60" y="124.76" as="sourcePoint" />
            <mxPoint x="-50" y="115.23" as="targetPoint" />
          </mxGeometry>
        </mxCell>
        <mxCell id="a9t_pYpvHZfNQOZHy2Yf-104" value="&lt;font style=&quot;font-size: 18px;&quot;&gt;16&lt;/font&gt;" style="text;html=1;align=center;verticalAlign=middle;whiteSpace=wrap;rounded=0;fillColor=none;rotation=0;" parent="1" vertex="1">
          <mxGeometry x="-58" y="125.46000000000001" width="20" height="12.93" as="geometry" />
        </mxCell>
        <mxCell id="a9t_pYpvHZfNQOZHy2Yf-106" value="&lt;font style=&quot;font-size: 18px;&quot;&gt;DATA_RDY&lt;/font&gt;" style="text;html=1;align=center;verticalAlign=middle;whiteSpace=wrap;rounded=0;fillColor=default;rotation=0;" parent="1" vertex="1">
          <mxGeometry y="45.6" width="98.6" height="12.93" as="geometry" />
        </mxCell>
        <mxCell id="a9t_pYpvHZfNQOZHy2Yf-165" style="edgeStyle=orthogonalEdgeStyle;rounded=0;orthogonalLoop=1;jettySize=auto;html=1;exitX=1.001;exitY=0.167;exitDx=0;exitDy=0;entryX=-0.001;entryY=0.165;entryDx=0;entryDy=0;exitPerimeter=0;entryPerimeter=0;strokeWidth=2;" parent="1" source="a9t_pYpvHZfNQOZHy2Yf-107" target="a9t_pYpvHZfNQOZHy2Yf-163" edge="1">
          <mxGeometry relative="1" as="geometry" />
        </mxCell>
        <mxCell id="a9t_pYpvHZfNQOZHy2Yf-166" style="edgeStyle=orthogonalEdgeStyle;rounded=0;orthogonalLoop=1;jettySize=auto;html=1;exitX=1.003;exitY=0.331;exitDx=0;exitDy=0;exitPerimeter=0;entryX=-0.004;entryY=0.332;entryDx=0;entryDy=0;entryPerimeter=0;strokeWidth=2;" parent="1" source="a9t_pYpvHZfNQOZHy2Yf-107" target="a9t_pYpvHZfNQOZHy2Yf-163" edge="1">
          <mxGeometry relative="1" as="geometry">
            <mxPoint x="480" y="-235" as="targetPoint" />
          </mxGeometry>
        </mxCell>
        <mxCell id="a9t_pYpvHZfNQOZHy2Yf-107" value="&lt;span style=&quot;font-size: 28px;&quot;&gt;Memory&lt;br&gt;Distribution&lt;br&gt;Control&lt;/span&gt;" style="rounded=1;whiteSpace=wrap;html=1;" parent="1" vertex="1">
          <mxGeometry x="160" y="-280" width="200" height="120" as="geometry" />
        </mxCell>
        <mxCell id="a9t_pYpvHZfNQOZHy2Yf-109" value="&lt;font style=&quot;font-size: 18px;&quot;&gt;CLK&lt;/font&gt;" style="text;html=1;align=center;verticalAlign=middle;whiteSpace=wrap;rounded=0;fillColor=default;rotation=-90;" parent="1" vertex="1">
          <mxGeometry x="311" y="-60" width="36" height="12.93" as="geometry" />
        </mxCell>
        <mxCell id="a9t_pYpvHZfNQOZHy2Yf-110" style="edgeStyle=orthogonalEdgeStyle;rounded=0;orthogonalLoop=1;jettySize=auto;html=1;exitX=0.729;exitY=-0.001;exitDx=0;exitDy=0;strokeWidth=2;exitPerimeter=0;entryX=0.715;entryY=1.001;entryDx=0;entryDy=0;entryPerimeter=0;" parent="1" target="a9t_pYpvHZfNQOZHy2Yf-107" edge="1">
          <mxGeometry relative="1" as="geometry">
            <mxPoint x="302.79999999999995" y="-0.20000000000004547" as="sourcePoint" />
            <mxPoint x="307" y="-150" as="targetPoint" />
            <Array as="points">
              <mxPoint x="303" y="-80" />
              <mxPoint x="303" y="-80" />
            </Array>
          </mxGeometry>
        </mxCell>
        <mxCell id="a9t_pYpvHZfNQOZHy2Yf-111" value="&lt;font style=&quot;font-size: 18px;&quot;&gt;R/nW&lt;/font&gt;" style="text;html=1;align=center;verticalAlign=middle;whiteSpace=wrap;rounded=0;fillColor=default;rotation=-90;" parent="1" vertex="1">
          <mxGeometry x="280.5" y="-59.11" width="47" height="12.93" as="geometry" />
        </mxCell>
        <mxCell id="a9t_pYpvHZfNQOZHy2Yf-113" value="&lt;font style=&quot;font-size: 18px;&quot;&gt;ADDR&lt;/font&gt;" style="text;html=1;align=center;verticalAlign=middle;whiteSpace=wrap;rounded=0;fillColor=default;rotation=-90;" parent="1" vertex="1">
          <mxGeometry x="242.5" y="-64.25" width="53.5" height="17.07" as="geometry" />
        </mxCell>
        <mxCell id="a9t_pYpvHZfNQOZHy2Yf-116" style="edgeStyle=orthogonalEdgeStyle;rounded=0;orthogonalLoop=1;jettySize=auto;html=1;exitX=0.35;exitY=-0.001;exitDx=0;exitDy=0;entryX=0.35;entryY=1;entryDx=0;entryDy=0;entryPerimeter=0;exitPerimeter=0;strokeWidth=2;" parent="1" source="a9t_pYpvHZfNQOZHy2Yf-13" target="a9t_pYpvHZfNQOZHy2Yf-107" edge="1">
          <mxGeometry relative="1" as="geometry" />
        </mxCell>
        <mxCell id="a9t_pYpvHZfNQOZHy2Yf-117" value="&lt;font style=&quot;font-size: 18px;&quot;&gt;DATA&lt;/font&gt;" style="text;html=1;align=center;verticalAlign=middle;whiteSpace=wrap;rounded=0;fillColor=default;rotation=-90;" parent="1" vertex="1">
          <mxGeometry x="203.25" y="-64.25" width="53.5" height="17.07" as="geometry" />
        </mxCell>
        <mxCell id="a9t_pYpvHZfNQOZHy2Yf-118" style="edgeStyle=orthogonalEdgeStyle;rounded=0;orthogonalLoop=1;jettySize=auto;html=1;exitX=0.149;exitY=1.001;exitDx=0;exitDy=0;entryX=0.15;entryY=0;entryDx=0;entryDy=0;entryPerimeter=0;exitPerimeter=0;strokeWidth=2;" parent="1" source="a9t_pYpvHZfNQOZHy2Yf-107" target="a9t_pYpvHZfNQOZHy2Yf-13" edge="1">
          <mxGeometry relative="1" as="geometry" />
        </mxCell>
        <mxCell id="a9t_pYpvHZfNQOZHy2Yf-119" value="&lt;font style=&quot;font-size: 18px;&quot;&gt;DATA&lt;/font&gt;" style="text;html=1;align=center;verticalAlign=middle;whiteSpace=wrap;rounded=0;fillColor=default;rotation=-90;" parent="1" vertex="1">
          <mxGeometry x="164.5" y="-64.25" width="53.5" height="17.07" as="geometry" />
        </mxCell>
        <mxCell id="a9t_pYpvHZfNQOZHy2Yf-121" value="" style="endArrow=none;html=1;rounded=0;strokeWidth=2;" parent="1" edge="1">
          <mxGeometry width="50" height="50" relative="1" as="geometry">
            <mxPoint x="184.5" y="-100" as="sourcePoint" />
            <mxPoint x="194.5" y="-110" as="targetPoint" />
          </mxGeometry>
        </mxCell>
        <mxCell id="a9t_pYpvHZfNQOZHy2Yf-122" value="&lt;font style=&quot;font-size: 18px;&quot;&gt;16&lt;/font&gt;" style="text;html=1;align=center;verticalAlign=middle;whiteSpace=wrap;rounded=0;fillColor=default;rotation=0;" parent="1" vertex="1">
          <mxGeometry x="165.5" y="-120" width="20" height="12.93" as="geometry" />
        </mxCell>
        <mxCell id="a9t_pYpvHZfNQOZHy2Yf-123" value="" style="endArrow=none;html=1;rounded=0;strokeWidth=2;" parent="1" edge="1">
          <mxGeometry width="50" height="50" relative="1" as="geometry">
            <mxPoint x="225.5" y="-100" as="sourcePoint" />
            <mxPoint x="235.5" y="-110" as="targetPoint" />
          </mxGeometry>
        </mxCell>
        <mxCell id="a9t_pYpvHZfNQOZHy2Yf-124" value="&lt;font style=&quot;font-size: 18px;&quot;&gt;16&lt;/font&gt;" style="text;html=1;align=center;verticalAlign=middle;whiteSpace=wrap;rounded=0;fillColor=default;rotation=0;" parent="1" vertex="1">
          <mxGeometry x="206.5" y="-120" width="20" height="12.93" as="geometry" />
        </mxCell>
        <mxCell id="a9t_pYpvHZfNQOZHy2Yf-125" value="" style="endArrow=none;html=1;rounded=0;strokeWidth=2;" parent="1" edge="1">
          <mxGeometry width="50" height="50" relative="1" as="geometry">
            <mxPoint x="265" y="-100" as="sourcePoint" />
            <mxPoint x="275" y="-110" as="targetPoint" />
          </mxGeometry>
        </mxCell>
        <mxCell id="a9t_pYpvHZfNQOZHy2Yf-126" value="&lt;font style=&quot;font-size: 18px;&quot;&gt;16&lt;/font&gt;" style="text;html=1;align=center;verticalAlign=middle;whiteSpace=wrap;rounded=0;fillColor=default;rotation=0;" parent="1" vertex="1">
          <mxGeometry x="246" y="-120" width="20" height="12.93" as="geometry" />
        </mxCell>
        <mxCell id="a9t_pYpvHZfNQOZHy2Yf-146" style="edgeStyle=orthogonalEdgeStyle;rounded=0;orthogonalLoop=1;jettySize=auto;html=1;exitX=0;exitY=0.666;exitDx=0;exitDy=0;entryX=-0.004;entryY=0.286;entryDx=0;entryDy=0;entryPerimeter=0;exitPerimeter=0;strokeWidth=2;" parent="1" source="a9t_pYpvHZfNQOZHy2Yf-129" target="a9t_pYpvHZfNQOZHy2Yf-143" edge="1">
          <mxGeometry relative="1" as="geometry">
            <mxPoint x="99.99999999999977" y="739.9536423841059" as="targetPoint" />
          </mxGeometry>
        </mxCell>
        <mxCell id="a9t_pYpvHZfNQOZHy2Yf-129" value="&lt;span style=&quot;font-size: 28px;&quot;&gt;DAC Control&lt;/span&gt;" style="rounded=1;whiteSpace=wrap;html=1;" parent="1" vertex="1">
          <mxGeometry x="160" y="640" width="200" height="60" as="geometry" />
        </mxCell>
        <mxCell id="a9t_pYpvHZfNQOZHy2Yf-136" value="" style="endArrow=none;html=1;rounded=0;strokeWidth=2;" parent="1" edge="1">
          <mxGeometry width="50" height="50" relative="1" as="geometry">
            <mxPoint x="305" y="579" as="sourcePoint" />
            <mxPoint x="315" y="569" as="targetPoint" />
          </mxGeometry>
        </mxCell>
        <mxCell id="a9t_pYpvHZfNQOZHy2Yf-137" value="&lt;font style=&quot;font-size: 18px;&quot;&gt;16&lt;/font&gt;" style="text;html=1;align=center;verticalAlign=middle;whiteSpace=wrap;rounded=0;fillColor=default;rotation=0;" parent="1" vertex="1">
          <mxGeometry x="317" y="567" width="20" height="12.93" as="geometry" />
        </mxCell>
        <mxCell id="a9t_pYpvHZfNQOZHy2Yf-139" value="" style="endArrow=none;html=1;rounded=0;strokeWidth=2;" parent="1" edge="1">
          <mxGeometry width="50" height="50" relative="1" as="geometry">
            <mxPoint x="254.75" y="579" as="sourcePoint" />
            <mxPoint x="264.75" y="569" as="targetPoint" />
          </mxGeometry>
        </mxCell>
        <mxCell id="a9t_pYpvHZfNQOZHy2Yf-140" value="&lt;font style=&quot;font-size: 18px;&quot;&gt;16&lt;/font&gt;" style="text;html=1;align=center;verticalAlign=middle;whiteSpace=wrap;rounded=0;fillColor=default;rotation=0;" parent="1" vertex="1">
          <mxGeometry x="266.75" y="567" width="20" height="12.93" as="geometry" />
        </mxCell>
        <mxCell id="a9t_pYpvHZfNQOZHy2Yf-141" value="" style="endArrow=none;html=1;rounded=0;strokeWidth=2;" parent="1" edge="1">
          <mxGeometry width="50" height="50" relative="1" as="geometry">
            <mxPoint x="205" y="579" as="sourcePoint" />
            <mxPoint x="215" y="569" as="targetPoint" />
          </mxGeometry>
        </mxCell>
        <mxCell id="a9t_pYpvHZfNQOZHy2Yf-142" value="&lt;font style=&quot;font-size: 18px;&quot;&gt;16&lt;/font&gt;" style="text;html=1;align=center;verticalAlign=middle;whiteSpace=wrap;rounded=0;fillColor=default;rotation=0;" parent="1" vertex="1">
          <mxGeometry x="217" y="567" width="20" height="12.93" as="geometry" />
        </mxCell>
        <mxCell id="a9t_pYpvHZfNQOZHy2Yf-143" value="" style="verticalLabelPosition=bottom;shadow=0;dashed=0;align=center;html=1;verticalAlign=top;shape=mxgraph.electrical.abstract.dac;rotation=-180;" parent="1" vertex="1">
          <mxGeometry x="-100" y="640" width="90" height="56" as="geometry" />
        </mxCell>
        <mxCell id="a9t_pYpvHZfNQOZHy2Yf-144" value="&lt;font style=&quot;font-size: 22px;&quot;&gt;DAC&lt;/font&gt;" style="text;html=1;align=center;verticalAlign=middle;whiteSpace=wrap;rounded=0;fillColor=default;rotation=0;" parent="1" vertex="1">
          <mxGeometry x="-77" y="658" width="50" height="20" as="geometry" />
        </mxCell>
        <mxCell id="a9t_pYpvHZfNQOZHy2Yf-145" style="edgeStyle=orthogonalEdgeStyle;rounded=0;orthogonalLoop=1;jettySize=auto;html=1;entryX=0;entryY=0.645;entryDx=0;entryDy=0;entryPerimeter=0;exitX=0;exitY=0.35;exitDx=0;exitDy=0;exitPerimeter=0;strokeWidth=2;" parent="1" source="a9t_pYpvHZfNQOZHy2Yf-129" target="a9t_pYpvHZfNQOZHy2Yf-143" edge="1">
          <mxGeometry relative="1" as="geometry" />
        </mxCell>
        <mxCell id="a9t_pYpvHZfNQOZHy2Yf-147" value="&lt;font style=&quot;font-size: 18px;&quot;&gt;CLK&lt;/font&gt;" style="text;html=1;align=center;verticalAlign=middle;whiteSpace=wrap;rounded=0;fillColor=default;" parent="1" vertex="1">
          <mxGeometry x="50.57000000000001" y="650" width="50" height="20" as="geometry" />
        </mxCell>
        <mxCell id="a9t_pYpvHZfNQOZHy2Yf-148" value="&lt;font style=&quot;font-size: 18px;&quot;&gt;DAC DATA&lt;/font&gt;" style="text;html=1;align=center;verticalAlign=middle;whiteSpace=wrap;rounded=0;fillColor=default;" parent="1" vertex="1">
          <mxGeometry x="7.399999999999999" y="670" width="105.15" height="20" as="geometry" />
        </mxCell>
        <mxCell id="a9t_pYpvHZfNQOZHy2Yf-150" value="" style="endArrow=none;html=1;rounded=0;strokeWidth=2;" parent="1" edge="1">
          <mxGeometry width="50" height="50" relative="1" as="geometry">
            <mxPoint x="131.9" y="685" as="sourcePoint" />
            <mxPoint x="141.9" y="675" as="targetPoint" />
          </mxGeometry>
        </mxCell>
        <mxCell id="a9t_pYpvHZfNQOZHy2Yf-151" value="&lt;font style=&quot;font-size: 18px;&quot;&gt;16&lt;/font&gt;" style="text;html=1;align=center;verticalAlign=middle;whiteSpace=wrap;rounded=0;fillColor=default;rotation=0;" parent="1" vertex="1">
          <mxGeometry x="121.9" y="690" width="20" height="12.93" as="geometry" />
        </mxCell>
        <mxCell id="a9t_pYpvHZfNQOZHy2Yf-152" value="&lt;span style=&quot;font-size: 18px;&quot;&gt;B&lt;/span&gt;" style="edgeLabel;html=1;align=center;verticalAlign=middle;resizable=0;points=[];rotation=0;" parent="1" vertex="1" connectable="0">
          <mxGeometry x="260" y="599.9960869565217" as="geometry">
            <mxPoint x="-1" y="-2" as="offset" />
          </mxGeometry>
        </mxCell>
        <mxCell id="a9t_pYpvHZfNQOZHy2Yf-154" value="&lt;span style=&quot;font-size: 18px;&quot;&gt;C&lt;/span&gt;" style="edgeLabel;html=1;align=center;verticalAlign=middle;resizable=0;points=[];rotation=0;" parent="1" vertex="1" connectable="0">
          <mxGeometry x="210" y="599.9960869565217" as="geometry">
            <mxPoint x="-1" y="-2" as="offset" />
          </mxGeometry>
        </mxCell>
        <mxCell id="a9t_pYpvHZfNQOZHy2Yf-155" value="" style="endArrow=none;dashed=1;html=1;rounded=0;strokeWidth=2;" parent="1" edge="1">
          <mxGeometry width="50" height="50" relative="1" as="geometry">
            <mxPoint x="10" y="720" as="sourcePoint" />
            <mxPoint x="10" y="610" as="targetPoint" />
          </mxGeometry>
        </mxCell>
        <mxCell id="a9t_pYpvHZfNQOZHy2Yf-156" value="" style="endArrow=none;dashed=1;html=1;rounded=0;strokeWidth=2;" parent="1" edge="1">
          <mxGeometry width="50" height="50" relative="1" as="geometry">
            <mxPoint x="540.4000000000001" y="560" as="sourcePoint" />
            <mxPoint x="540" y="360" as="targetPoint" />
          </mxGeometry>
        </mxCell>
        <mxCell id="a9t_pYpvHZfNQOZHy2Yf-157" value="" style="endArrow=none;dashed=1;html=1;rounded=0;strokeWidth=2;" parent="1" edge="1">
          <mxGeometry width="50" height="50" relative="1" as="geometry">
            <mxPoint x="-380" y="230" as="sourcePoint" />
            <mxPoint x="-380" y="-3.5299999999999727" as="targetPoint" />
          </mxGeometry>
        </mxCell>
        <mxCell id="a9t_pYpvHZfNQOZHy2Yf-159" value="&lt;font style=&quot;font-size: 22px;&quot;&gt;A = Bit 15-0 Frequency Setting Word&lt;/font&gt;" style="text;html=1;align=center;verticalAlign=middle;whiteSpace=wrap;rounded=0;fontSize=22;" parent="1" vertex="1">
          <mxGeometry x="414" y="598" width="386" height="30" as="geometry" />
        </mxCell>
        <mxCell id="a9t_pYpvHZfNQOZHy2Yf-160" value="&lt;font style=&quot;font-size: 22px;&quot;&gt;B = Bit 31-16 Frequency Setting Word&lt;/font&gt;" style="text;html=1;align=center;verticalAlign=middle;whiteSpace=wrap;rounded=0;fontSize=22;" parent="1" vertex="1">
          <mxGeometry x="415" y="630" width="395" height="30" as="geometry" />
        </mxCell>
        <mxCell id="a9t_pYpvHZfNQOZHy2Yf-161" value="&lt;font style=&quot;font-size: 22px;&quot;&gt;C = DAC Amplitude setting&lt;/font&gt;" style="text;html=1;align=center;verticalAlign=middle;whiteSpace=wrap;rounded=0;fontSize=22;" parent="1" vertex="1">
          <mxGeometry x="399" y="660" width="315" height="30" as="geometry" />
        </mxCell>
        <mxCell id="a9t_pYpvHZfNQOZHy2Yf-162" value="&lt;font style=&quot;font-size: 22px;&quot;&gt;Dashed liens indicate break betweem FPGA and external circuits&lt;/font&gt;" style="text;html=1;align=center;verticalAlign=middle;whiteSpace=wrap;rounded=0;fontSize=22;" parent="1" vertex="1">
          <mxGeometry x="-500" y="570" width="320" height="105" as="geometry" />
        </mxCell>
        <mxCell id="a9t_pYpvHZfNQOZHy2Yf-184" style="edgeStyle=orthogonalEdgeStyle;rounded=0;orthogonalLoop=1;jettySize=auto;html=1;exitX=0.199;exitY=1.003;exitDx=0;exitDy=0;entryX=0.5;entryY=0;entryDx=0;entryDy=0;exitPerimeter=0;strokeWidth=2;startArrow=classic;startFill=1;" parent="1" source="a9t_pYpvHZfNQOZHy2Yf-163" target="a9t_pYpvHZfNQOZHy2Yf-183" edge="1">
          <mxGeometry relative="1" as="geometry" />
        </mxCell>
        <mxCell id="a9t_pYpvHZfNQOZHy2Yf-189" style="edgeStyle=orthogonalEdgeStyle;rounded=0;orthogonalLoop=1;jettySize=auto;html=1;exitX=0.5;exitY=1;exitDx=0;exitDy=0;entryX=0.5;entryY=0;entryDx=0;entryDy=0;strokeWidth=2;" parent="1" source="a9t_pYpvHZfNQOZHy2Yf-163" target="a9t_pYpvHZfNQOZHy2Yf-176" edge="1">
          <mxGeometry relative="1" as="geometry" />
        </mxCell>
        <mxCell id="oEeGsD2-1XBBF1b0rADH-2" style="edgeStyle=orthogonalEdgeStyle;rounded=0;orthogonalLoop=1;jettySize=auto;html=1;entryX=1;entryY=0.5;entryDx=0;entryDy=0;strokeWidth=2;" edge="1" parent="1" source="a9t_pYpvHZfNQOZHy2Yf-163" target="a9t_pYpvHZfNQOZHy2Yf-183">
          <mxGeometry relative="1" as="geometry" />
        </mxCell>
        <mxCell id="a9t_pYpvHZfNQOZHy2Yf-163" value="&lt;span style=&quot;font-size: 28px;&quot;&gt;Ext&lt;br&gt;Memory&lt;br&gt;Control&lt;/span&gt;" style="rounded=1;whiteSpace=wrap;html=1;" parent="1" vertex="1">
          <mxGeometry x="520" y="-280" width="200" height="120" as="geometry" />
        </mxCell>
        <mxCell id="a9t_pYpvHZfNQOZHy2Yf-168" style="edgeStyle=orthogonalEdgeStyle;rounded=0;orthogonalLoop=1;jettySize=auto;html=1;exitX=0;exitY=0.5;exitDx=0;exitDy=0;entryX=1;entryY=0.5;entryDx=0;entryDy=0;strokeWidth=2;" parent="1" source="a9t_pYpvHZfNQOZHy2Yf-163" target="a9t_pYpvHZfNQOZHy2Yf-107" edge="1">
          <mxGeometry relative="1" as="geometry" />
        </mxCell>
        <mxCell id="a9t_pYpvHZfNQOZHy2Yf-169" value="&lt;font style=&quot;font-size: 18px;&quot;&gt;ADDR&lt;/font&gt;" style="text;html=1;align=center;verticalAlign=middle;whiteSpace=wrap;rounded=0;fillColor=default;rotation=0;" parent="1" vertex="1">
          <mxGeometry x="410" y="-270" width="53.5" height="17.07" as="geometry" />
        </mxCell>
        <mxCell id="a9t_pYpvHZfNQOZHy2Yf-170" value="&lt;font style=&quot;font-size: 18px;&quot;&gt;DATA&lt;/font&gt;" style="text;html=1;align=center;verticalAlign=middle;whiteSpace=wrap;rounded=0;fillColor=default;rotation=0;" parent="1" vertex="1">
          <mxGeometry x="410" y="-248" width="53.5" height="17.07" as="geometry" />
        </mxCell>
        <mxCell id="a9t_pYpvHZfNQOZHy2Yf-171" value="&lt;font style=&quot;font-size: 18px;&quot;&gt;DATA&lt;/font&gt;" style="text;html=1;align=center;verticalAlign=middle;whiteSpace=wrap;rounded=0;fillColor=default;rotation=0;" parent="1" vertex="1">
          <mxGeometry x="410" y="-227.54" width="53.5" height="17.07" as="geometry" />
        </mxCell>
        <mxCell id="a9t_pYpvHZfNQOZHy2Yf-172" style="edgeStyle=orthogonalEdgeStyle;rounded=0;orthogonalLoop=1;jettySize=auto;html=1;exitX=1;exitY=0.667;exitDx=0;exitDy=0;entryX=-0.006;entryY=0.669;entryDx=0;entryDy=0;entryPerimeter=0;exitPerimeter=0;strokeWidth=2;" parent="1" source="a9t_pYpvHZfNQOZHy2Yf-107" target="a9t_pYpvHZfNQOZHy2Yf-163" edge="1">
          <mxGeometry relative="1" as="geometry" />
        </mxCell>
        <mxCell id="a9t_pYpvHZfNQOZHy2Yf-173" value="&lt;font style=&quot;font-size: 18px;&quot;&gt;R/nW&lt;/font&gt;" style="text;html=1;align=center;verticalAlign=middle;whiteSpace=wrap;rounded=0;fillColor=default;rotation=0;" parent="1" vertex="1">
          <mxGeometry x="410" y="-208" width="53.5" height="17.07" as="geometry" />
        </mxCell>
        <mxCell id="a9t_pYpvHZfNQOZHy2Yf-174" style="edgeStyle=orthogonalEdgeStyle;rounded=0;orthogonalLoop=1;jettySize=auto;html=1;exitX=1.001;exitY=0.833;exitDx=0;exitDy=0;entryX=-0.002;entryY=0.835;entryDx=0;entryDy=0;entryPerimeter=0;exitPerimeter=0;strokeWidth=2;" parent="1" source="a9t_pYpvHZfNQOZHy2Yf-107" target="a9t_pYpvHZfNQOZHy2Yf-163" edge="1">
          <mxGeometry relative="1" as="geometry" />
        </mxCell>
        <mxCell id="a9t_pYpvHZfNQOZHy2Yf-175" value="&lt;font style=&quot;font-size: 18px;&quot;&gt;CLK&lt;/font&gt;" style="text;html=1;align=center;verticalAlign=middle;whiteSpace=wrap;rounded=0;fillColor=default;rotation=0;" parent="1" vertex="1">
          <mxGeometry x="409" y="-188" width="53.5" height="17.07" as="geometry" />
        </mxCell>
        <mxCell id="a9t_pYpvHZfNQOZHy2Yf-176" value="&lt;span style=&quot;font-size: 28px;&quot;&gt;Ext Memory&lt;/span&gt;" style="rounded=1;whiteSpace=wrap;html=1;" parent="1" vertex="1">
          <mxGeometry x="520" y="197" width="200" height="120" as="geometry" />
        </mxCell>
        <mxCell id="a9t_pYpvHZfNQOZHy2Yf-177" value="" style="endArrow=none;html=1;rounded=0;strokeWidth=2;" parent="1" edge="1">
          <mxGeometry width="50" height="50" relative="1" as="geometry">
            <mxPoint x="375" y="-214.54" as="sourcePoint" />
            <mxPoint x="385" y="-224.54" as="targetPoint" />
          </mxGeometry>
        </mxCell>
        <mxCell id="a9t_pYpvHZfNQOZHy2Yf-178" value="" style="endArrow=none;html=1;rounded=0;strokeWidth=2;" parent="1" edge="1">
          <mxGeometry width="50" height="50" relative="1" as="geometry">
            <mxPoint x="375" y="-234.47" as="sourcePoint" />
            <mxPoint x="385" y="-244.47" as="targetPoint" />
          </mxGeometry>
        </mxCell>
        <mxCell id="a9t_pYpvHZfNQOZHy2Yf-179" value="" style="endArrow=none;html=1;rounded=0;strokeWidth=2;" parent="1" edge="1">
          <mxGeometry width="50" height="50" relative="1" as="geometry">
            <mxPoint x="375" y="-254.45999999999998" as="sourcePoint" />
            <mxPoint x="385" y="-264.46" as="targetPoint" />
          </mxGeometry>
        </mxCell>
        <mxCell id="a9t_pYpvHZfNQOZHy2Yf-180" value="&lt;span style=&quot;font-size: 18px;&quot;&gt;19&lt;/span&gt;" style="text;html=1;align=center;verticalAlign=middle;whiteSpace=wrap;rounded=0;fillColor=none;rotation=0;" parent="1" vertex="1">
          <mxGeometry x="385" y="-275" width="20" height="12.93" as="geometry" />
        </mxCell>
        <mxCell id="a9t_pYpvHZfNQOZHy2Yf-181" value="&lt;font style=&quot;font-size: 18px;&quot;&gt;8&lt;/font&gt;" style="text;html=1;align=center;verticalAlign=middle;whiteSpace=wrap;rounded=0;fillColor=none;rotation=0;" parent="1" vertex="1">
          <mxGeometry x="385" y="-255.93" width="20" height="12.93" as="geometry" />
        </mxCell>
        <mxCell id="a9t_pYpvHZfNQOZHy2Yf-182" value="&lt;font style=&quot;font-size: 18px;&quot;&gt;8&lt;/font&gt;" style="text;html=1;align=center;verticalAlign=middle;whiteSpace=wrap;rounded=0;fillColor=none;rotation=0;" parent="1" vertex="1">
          <mxGeometry x="385" y="-235" width="20" height="12.93" as="geometry" />
        </mxCell>
        <mxCell id="a9t_pYpvHZfNQOZHy2Yf-183" value="&lt;font style=&quot;font-size: 28px;&quot;&gt;I/O&lt;br&gt;Port&lt;/font&gt;" style="rounded=1;whiteSpace=wrap;html=1;" parent="1" vertex="1">
          <mxGeometry x="520" y="-23" width="80" height="70" as="geometry" />
        </mxCell>
        <mxCell id="a9t_pYpvHZfNQOZHy2Yf-185" style="edgeStyle=orthogonalEdgeStyle;rounded=0;orthogonalLoop=1;jettySize=auto;html=1;exitX=0.5;exitY=1;exitDx=0;exitDy=0;entryX=0.199;entryY=-0.008;entryDx=0;entryDy=0;entryPerimeter=0;strokeWidth=2;startArrow=classic;startFill=1;" parent="1" source="a9t_pYpvHZfNQOZHy2Yf-183" target="a9t_pYpvHZfNQOZHy2Yf-176" edge="1">
          <mxGeometry relative="1" as="geometry" />
        </mxCell>
        <mxCell id="a9t_pYpvHZfNQOZHy2Yf-186" value="&lt;font style=&quot;font-size: 18px;&quot;&gt;DATA&lt;/font&gt;" style="text;html=1;align=center;verticalAlign=middle;whiteSpace=wrap;rounded=0;fillColor=default;rotation=-90;" parent="1" vertex="1">
          <mxGeometry x="535" y="119" width="53.5" height="17.07" as="geometry" />
        </mxCell>
        <mxCell id="a9t_pYpvHZfNQOZHy2Yf-188" value="&lt;font style=&quot;font-size: 18px;&quot;&gt;DATA&lt;/font&gt;" style="text;html=1;align=center;verticalAlign=middle;whiteSpace=wrap;rounded=0;fillColor=default;rotation=-90;" parent="1" vertex="1">
          <mxGeometry x="535" y="-115" width="53.5" height="17.07" as="geometry" />
        </mxCell>
        <mxCell id="a9t_pYpvHZfNQOZHy2Yf-190" value="&lt;font style=&quot;font-size: 18px;&quot;&gt;nWE&lt;/font&gt;" style="text;html=1;align=center;verticalAlign=middle;whiteSpace=wrap;rounded=0;fillColor=default;rotation=-90;" parent="1" vertex="1">
          <mxGeometry x="595" y="-34.99999999999999" width="53.5" height="17.07" as="geometry" />
        </mxCell>
        <mxCell id="a9t_pYpvHZfNQOZHy2Yf-191" style="edgeStyle=orthogonalEdgeStyle;rounded=0;orthogonalLoop=1;jettySize=auto;html=1;exitX=0.699;exitY=1.004;exitDx=0;exitDy=0;entryX=0.699;entryY=-0.007;entryDx=0;entryDy=0;entryPerimeter=0;exitPerimeter=0;strokeWidth=2;" parent="1" source="a9t_pYpvHZfNQOZHy2Yf-163" target="a9t_pYpvHZfNQOZHy2Yf-176" edge="1">
          <mxGeometry relative="1" as="geometry" />
        </mxCell>
        <mxCell id="a9t_pYpvHZfNQOZHy2Yf-192" style="edgeStyle=orthogonalEdgeStyle;rounded=0;orthogonalLoop=1;jettySize=auto;html=1;exitX=0.897;exitY=1.001;exitDx=0;exitDy=0;entryX=0.901;entryY=-0.001;entryDx=0;entryDy=0;entryPerimeter=0;exitPerimeter=0;strokeWidth=2;" parent="1" source="a9t_pYpvHZfNQOZHy2Yf-163" target="a9t_pYpvHZfNQOZHy2Yf-176" edge="1">
          <mxGeometry relative="1" as="geometry" />
        </mxCell>
        <mxCell id="a9t_pYpvHZfNQOZHy2Yf-193" value="&lt;font style=&quot;font-size: 18px;&quot;&gt;ADDR&lt;/font&gt;" style="text;html=1;align=center;verticalAlign=middle;whiteSpace=wrap;rounded=0;fillColor=default;rotation=-90;" parent="1" vertex="1">
          <mxGeometry x="635" y="-35" width="53.5" height="17.07" as="geometry" />
        </mxCell>
        <mxCell id="a9t_pYpvHZfNQOZHy2Yf-194" value="&lt;font style=&quot;font-size: 18px;&quot;&gt;OE&lt;/font&gt;" style="text;html=1;align=center;verticalAlign=middle;whiteSpace=wrap;rounded=0;fillColor=default;rotation=-90;" parent="1" vertex="1">
          <mxGeometry x="673.25" y="-35" width="53.5" height="17.07" as="geometry" />
        </mxCell>
        <mxCell id="a9t_pYpvHZfNQOZHy2Yf-195" value="" style="endArrow=none;dashed=1;html=1;rounded=0;strokeWidth=2;" parent="1" edge="1">
          <mxGeometry width="50" height="50" relative="1" as="geometry">
            <mxPoint x="482.75" y="167.47" as="sourcePoint" />
            <mxPoint x="762.75" y="167.47" as="targetPoint" />
          </mxGeometry>
        </mxCell>
        <mxCell id="DPvkWohrb8gGVlB9ZxJd-2" value="" style="endArrow=none;html=1;rounded=0;strokeWidth=2;" parent="1" edge="1">
          <mxGeometry width="50" height="50" relative="1" as="geometry">
            <mxPoint x="555" y="-50.72" as="sourcePoint" />
            <mxPoint x="565" y="-60.72" as="targetPoint" />
          </mxGeometry>
        </mxCell>
        <mxCell id="DPvkWohrb8gGVlB9ZxJd-3" value="" style="endArrow=none;html=1;rounded=0;strokeWidth=2;" parent="1" edge="1">
          <mxGeometry width="50" height="50" relative="1" as="geometry">
            <mxPoint x="555" y="75" as="sourcePoint" />
            <mxPoint x="565" y="65" as="targetPoint" />
          </mxGeometry>
        </mxCell>
        <mxCell id="DPvkWohrb8gGVlB9ZxJd-4" value="" style="endArrow=none;html=1;rounded=0;strokeWidth=2;" parent="1" edge="1">
          <mxGeometry width="50" height="50" relative="1" as="geometry">
            <mxPoint x="654" y="-134" as="sourcePoint" />
            <mxPoint x="664" y="-144" as="targetPoint" />
          </mxGeometry>
        </mxCell>
        <mxCell id="DPvkWohrb8gGVlB9ZxJd-5" value="&lt;font style=&quot;font-size: 18px;&quot;&gt;19&lt;/font&gt;" style="text;html=1;align=center;verticalAlign=middle;whiteSpace=wrap;rounded=0;fillColor=none;rotation=0;" parent="1" vertex="1">
          <mxGeometry x="662" y="-135" width="20" height="12.93" as="geometry" />
        </mxCell>
        <mxCell id="DPvkWohrb8gGVlB9ZxJd-6" value="&lt;font style=&quot;font-size: 18px;&quot;&gt;8&lt;/font&gt;" style="text;html=1;align=center;verticalAlign=middle;whiteSpace=wrap;rounded=0;fillColor=none;rotation=0;" parent="1" vertex="1">
          <mxGeometry x="565" y="-55" width="20" height="12.93" as="geometry" />
        </mxCell>
        <mxCell id="DPvkWohrb8gGVlB9ZxJd-7" value="&lt;font style=&quot;font-size: 18px;&quot;&gt;8&lt;/font&gt;" style="text;html=1;align=center;verticalAlign=middle;whiteSpace=wrap;rounded=0;fillColor=none;rotation=0;" parent="1" vertex="1">
          <mxGeometry x="560" y="70" width="20" height="12.93" as="geometry" />
        </mxCell>
      </root>
    </mxGraphModel>
  </diagram>
</mxfile>
